<?xml version="1.0" standalone="no"?><!DOCTYPE svg PUBLIC "-//W3C//DTD SVG 1.1//EN" "http://www.w3.org/Graphics/SVG/1.1/DTD/svg11.dtd"><svg xmlns:xlink="http://www.w3.org/1999/xlink" version="1.1" class="highcharts-root" style="font-family: Roboto; font-size: 12px;" xmlns="http://www.w3.org/2000/svg" width="650" height="400" viewBox="0 0 650 400" aria-label="Interactive chart" aria-hidden="false"><desc aria-hidden="true">Created with Highcharts 10.3.1</desc><defs aria-hidden="true"><clipPath id="highcharts-dxcrcpn-88-"><rect x="0" y="0" width="572" height="279" fill="none"></rect></clipPath><clipPath id="highcharts-dxcrcpn-95-"><rect x="0" y="0" width="572" height="279" fill="none"></rect></clipPath></defs><rect fill="#ffffff" class="highcharts-background" x="0" y="0" width="650" height="400" rx="0" ry="0" aria-hidden="true"></rect><rect fill="none" class="highcharts-plot-background" x="68" y="47" width="572" height="279" aria-hidden="true"></rect><g class="highcharts-pane-group" data-z-index="0" aria-hidden="true"></g><g class="highcharts-grid highcharts-xaxis-grid" data-z-index="1" aria-hidden="true"><path fill="none" stroke-dasharray="none" data-z-index="1" class="highcharts-grid-line" d="M 162.5 47 L 162.5 326" opacity="1"></path><path fill="none" stroke-dasharray="none" data-z-index="1" class="highcharts-grid-line" d="M 258.5 47 L 258.5 326" opacity="1"></path><path fill="none" stroke-dasharray="none" data-z-index="1" class="highcharts-grid-line" d="M 353.5 47 L 353.5 326" opacity="1"></path><path fill="none" stroke-dasharray="none" data-z-index="1" class="highcharts-grid-line" d="M 448.5 47 L 448.5 326" opacity="1"></path><path fill="none" stroke-dasharray="none" data-z-index="1" class="highcharts-grid-line" d="M 544.5 47 L 544.5 326" opacity="1"></path><path fill="none" stroke-dasharray="none" data-z-index="1" class="highcharts-grid-line" d="M 639.5 47 L 639.5 326" opacity="1"></path><path fill="none" stroke-dasharray="none" data-z-index="1" class="highcharts-grid-line" d="M 67.5 47 L 67.5 326" opacity="1"></path></g><g class="highcharts-grid highcharts-yaxis-grid" data-z-index="1" aria-hidden="true"><path fill="none" stroke="#e6e6e6" stroke-width="1" stroke-dasharray="none" data-z-index="1" class="highcharts-grid-line" d="M 68 326.5 L 640 326.5" opacity="1"></path><path fill="none" stroke="#e6e6e6" stroke-width="1" stroke-dasharray="none" data-z-index="1" class="highcharts-grid-line" d="M 68 256.5 L 640 256.5" opacity="1"></path><path fill="none" stroke="#e6e6e6" stroke-width="1" stroke-dasharray="none" data-z-index="1" class="highcharts-grid-line" d="M 68 187.5 L 640 187.5" opacity="1"></path><path fill="none" stroke="#e6e6e6" stroke-width="1" stroke-dasharray="none" data-z-index="1" class="highcharts-grid-line" d="M 68 117.5 L 640 117.5" opacity="1"></path><path fill="none" stroke="#e6e6e6" stroke-width="1" stroke-dasharray="none" data-z-index="1" class="highcharts-grid-line" d="M 68 46.5 L 640 46.5" opacity="1"></path></g><rect fill="none" class="highcharts-plot-border" data-z-index="1" x="68" y="47" width="572" height="279" aria-hidden="true"></rect><g class="highcharts-axis highcharts-xaxis" data-z-index="2" aria-hidden="true"><path fill="none" class="highcharts-axis-line" stroke="#ccd6eb" stroke-width="1" data-z-index="7" d="M 68 326.5 L 640 326.5"></path></g><g class="highcharts-axis highcharts-yaxis" data-z-index="2" aria-hidden="true"><text x="24.46875" data-z-index="7" text-anchor="middle" transform="translate(0,0) rotate(270 24.46875 186.5)" class="highcharts-axis-title" style="color: rgb(102, 102, 102); fill: rgb(102, 102, 102);" y="186.5">Values</text><path fill="none" class="highcharts-axis-line" data-z-index="7" d="M 68 47 L 68 326"></path></g><g class="highcharts-series-group" data-z-index="3" aria-hidden="false"><g class="highcharts-series highcharts-series-0 highcharts-areaspline-series" data-z-index="0.1" opacity="1" transform="translate(68,47) scale(1 1)" clip-path="url(#highcharts-dxcrcpn-95-)" aria-hidden="true"><path fill="rgb(111,88,233)" fill-opacity="0.35" d="M 47.666666666667 119.97 C 47.666666666667 119.97 104.86666666666679 92.07 143 92.07 C 181.133333333336 92.07 200.200000000004 228.78 238.33333333334 228.78 C 276.466666666672 228.78 295.53333333333796 62.775000000000006 333.66666666667 62.775000000000006 C 371.800000000002 62.775000000000006 390.866666666668 107.41500000000144 429 135.315 C 467.13333333333594 163.21500000000142 524.33333333334 202.275 524.33333333334 202.275 L 524.33333333334 251.1 C 524.33333333334 251.1 467.13333333333594 218.4570000000009 429 200.88 C 390.866666666668 183.3030000000009 371.800000000002 163.215 333.66666666667 163.215 C 295.53333333333796 163.215 276.466666666672 262.26 238.33333333334 262.26 C 200.200000000004 262.26 181.133333333336 177.16500000000002 143 177.16500000000002 C 104.86666666666679 177.16500000000002 47.666666666667 224.595 47.666666666667 224.595 Z" class="highcharts-area" data-z-index="0"></path><path fill="none" d="M 47.666666666667 119.97 C 47.666666666667 119.97 104.86666666666679 92.07 143 92.07 C 181.133333333336 92.07 200.200000000004 228.78 238.33333333334 228.78 C 276.466666666672 228.78 295.53333333333796 62.775000000000006 333.66666666667 62.775000000000006 C 371.800000000002 62.775000000000006 390.866666666668 107.41500000000144 429 135.315 C 467.13333333333594 163.21500000000142 524.33333333334 202.275 524.33333333334 202.275" class="highcharts-graph" data-z-index="1" stroke="#6f58e9" stroke-width="2" stroke-linejoin="round" stroke-linecap="round"></path></g><g class="highcharts-markers highcharts-series-0 highcharts-areaspline-series" data-z-index="0.1" opacity="1" transform="translate(68,47) scale(1 1)" clip-path="none" aria-hidden="false" role="region" tabindex="-1" aria-label="Item 1, series 1 of 2 with 6 data points." style="outline: none;"><path fill="#6f58e9" d="M 47 124 A 4 4 0 1 1 47.00399999933334 123.99999800000016 Z" opacity="1" class="highcharts-point" tabindex="-1" role="img" aria-label="Category 1, 75 units. Item 1." style="outline: none;"></path><path fill="#6f58e9" d="M 143 96 A 4 4 0 1 1 143.00399999933333 95.99999800000016 Z" opacity="1" class="highcharts-point" tabindex="-1" role="img" aria-label="Category 2, 61 units. Item 1." style="outline: none;"></path><path fill="#6f58e9" d="M 238 233 A 4 4 0 1 1 238.00399999933333 232.99999800000018 Z" opacity="1" class="highcharts-point" tabindex="-1" role="img" aria-label="Category 3, 24 units. Item 1." style="outline: none;"></path><path fill="#6f58e9" d="M 333 67 A 4 4 0 1 1 333.00399999933336 66.99999800000016 Z" opacity="1" class="highcharts-point" tabindex="-1" role="img" aria-label="Category 4, 72 units. Item 1." style="outline: none;"></path><path fill="#6f58e9" d="M 429 139 A 4 4 0 1 1 429.00399999933336 138.99999800000018 Z" opacity="1" class="highcharts-point" tabindex="-1" role="img" aria-label="Category 5, 47 units. Item 1." style="outline: none;"></path><path fill="#6f58e9" d="M 524 206 A 4 4 0 1 1 524.0039999993334 205.99999800000018 Z" opacity="1" class="highcharts-point" tabindex="-1" role="img" aria-label="Category 6, 35 units. Item 1." style="outline: none;"></path></g><g class="highcharts-series highcharts-series-1 highcharts-areaspline-series" data-z-index="0.1" opacity="1" transform="translate(68,47) scale(1 1)" clip-path="url(#highcharts-dxcrcpn-95-)" aria-hidden="true"><path fill="rgb(148,209,61)" fill-opacity="0.35" d="M 47.666666666667 224.595 C 47.666666666667 224.595 104.86666666666679 177.16500000000002 143 177.16500000000002 C 181.133333333336 177.16500000000002 200.200000000004 262.26 238.33333333334 262.26 C 276.466666666672 262.26 295.53333333333796 163.215 333.66666666667 163.215 C 371.800000000002 163.215 390.866666666668 183.3030000000009 429 200.88 C 467.13333333333594 218.4570000000009 524.33333333334 251.1 524.33333333334 251.1 L 524.33333333334 279 C 524.33333333334 279 467.13333333333594 279 429 279 C 390.866666666668 279 371.800000000002 279 333.66666666667 279 C 295.53333333333796 279 276.466666666672 279 238.33333333334 279 C 200.200000000004 279 181.133333333336 279 143 279 C 104.86666666666679 279 47.666666666667 279 47.666666666667 279 Z" class="highcharts-area" data-z-index="0"></path><path fill="none" d="M 47.666666666667 224.595 C 47.666666666667 224.595 104.86666666666679 177.16500000000002 143 177.16500000000002 C 181.133333333336 177.16500000000002 200.200000000004 262.26 238.33333333334 262.26 C 276.466666666672 262.26 295.53333333333796 163.215 333.66666666667 163.215 C 371.800000000002 163.215 390.866666666668 183.3030000000009 429 200.88 C 467.13333333333594 218.4570000000009 524.33333333334 251.1 524.33333333334 251.1" class="highcharts-graph" data-z-index="1" stroke="#94d13d" stroke-width="2" stroke-linejoin="round" stroke-linecap="round"></path></g><g class="highcharts-markers highcharts-series-1 highcharts-areaspline-series" data-z-index="0.1" opacity="1" transform="translate(68,47) scale(1 1)" clip-path="none" aria-hidden="false" role="region" tabindex="-1" aria-label="Item 2, series 2 of 2 with 6 data points." style="outline: none;"><path fill="#94d13d" d="M 47 221 L 51 225 L 47 229 L 43 225 Z" opacity="1" class="highcharts-point" tabindex="-1" role="img" aria-label="Category 1, 39 units. Item 2." style="outline: none;"></path><path fill="#94d13d" d="M 143 173 L 147 177 L 143 181 L 139 177 Z" opacity="1" class="highcharts-point" tabindex="-1" role="img" aria-label="Category 2, 73 units. Item 2." style="outline: none;"></path><path fill="#94d13d" d="M 238 258 L 242 262 L 238 266 L 234 262 Z" opacity="1" class="highcharts-point" tabindex="-1" role="img" aria-label="Category 3, 12 units. Item 2." style="outline: none;"></path><path fill="#94d13d" d="M 333 159 L 337 163 L 333 167 L 329 163 Z" opacity="1" class="highcharts-point" tabindex="-1" role="img" aria-label="Category 4, 83 units. Item 2." style="outline: none;"></path><path fill="#94d13d" d="M 429 197 L 433 201 L 429 205 L 425 201 Z" opacity="1" class="highcharts-point" tabindex="-1" role="img" aria-label="Category 5, 56 units. Item 2." style="outline: none;"></path><path fill="#94d13d" d="M 524 247 L 528 251 L 524 255 L 520 251 Z" opacity="1" class="highcharts-point" tabindex="-1" role="img" aria-label="Category 6, 20 units. Item 2." style="outline: none;"></path></g></g><text x="325" text-anchor="middle" class="highcharts-title" data-z-index="4" style="color: rgb(51, 51, 51); font-size: 18px; fill: rgb(51, 51, 51);" y="24" aria-hidden="true">Optimización</text><text x="325" text-anchor="middle" class="highcharts-subtitle" data-z-index="4" style="color: rgb(102, 102, 102); fill: rgb(102, 102, 102);" y="46" aria-hidden="true"></text><text x="10" text-anchor="start" class="highcharts-caption" data-z-index="4" style="color: rgb(102, 102, 102); fill: rgb(102, 102, 102);" y="397" aria-hidden="true"></text><g class="highcharts-data-labels highcharts-series-0 highcharts-areaspline-series" data-z-index="6" opacity="1" transform="translate(68,47) scale(1 1)" aria-hidden="true"><g class="highcharts-label highcharts-data-label highcharts-data-label-color-undefined" data-z-index="1" transform="translate(36,97)" style="cursor: pointer;"><text x="5" data-z-index="1" y="16" style="color: black; font-size: 11px; font-weight: bold; fill: black;">75</text></g><g class="highcharts-label highcharts-data-label highcharts-data-label-color-undefined" data-z-index="1" transform="translate(131,69)" style="cursor: pointer;"><text x="5" data-z-index="1" y="16" style="color: black; font-size: 11px; font-weight: bold; fill: black;">61</text></g><g class="highcharts-label highcharts-data-label highcharts-data-label-color-undefined" data-z-index="1" transform="translate(227,206)" style="cursor: pointer;"><text x="5" data-z-index="1" y="16" style="color: black; font-size: 11px; font-weight: bold; fill: black;">24</text></g><g class="highcharts-label highcharts-data-label highcharts-data-label-color-undefined" data-z-index="1" transform="translate(322,40)" style="cursor: pointer;"><text x="5" data-z-index="1" y="16" style="color: black; font-size: 11px; font-weight: bold; fill: black;">72</text></g><g class="highcharts-label highcharts-data-label highcharts-data-label-color-undefined" data-z-index="1" transform="translate(417,112)" style="cursor: pointer;"><text x="5" data-z-index="1" y="16" style="color: black; font-size: 11px; font-weight: bold; fill: black;">47</text></g><g class="highcharts-label highcharts-data-label highcharts-data-label-color-undefined" data-z-index="1" transform="translate(513,179)" style="cursor: pointer;"><text x="5" data-z-index="1" y="16" style="color: black; font-size: 11px; font-weight: bold; fill: black;">35</text></g></g><g class="highcharts-data-labels highcharts-series-1 highcharts-areaspline-series" data-z-index="6" opacity="1" transform="translate(68,47) scale(1 1)" aria-hidden="true"><g class="highcharts-label highcharts-data-label highcharts-data-label-color-undefined" data-z-index="1" transform="translate(36,202)" style="cursor: pointer;"><text x="5" data-z-index="1" y="16" style="color: black; font-size: 11px; font-weight: bold; fill: black;">39</text></g><g class="highcharts-label highcharts-data-label highcharts-data-label-color-undefined" data-z-index="1" transform="translate(131,154)" style="cursor: pointer;"><text x="5" data-z-index="1" y="16" style="color: black; font-size: 11px; font-weight: bold; fill: black;">73</text></g><g class="highcharts-label highcharts-data-label highcharts-data-label-color-undefined" data-z-index="1" transform="translate(227,239)" style="cursor: pointer;"><text x="5" data-z-index="1" y="16" style="color: black; font-size: 11px; font-weight: bold; fill: black;">12</text></g><g class="highcharts-label highcharts-data-label highcharts-data-label-color-undefined" data-z-index="1" transform="translate(322,140)" style="cursor: pointer;"><text x="5" data-z-index="1" y="16" style="color: black; font-size: 11px; font-weight: bold; fill: black;">83</text></g><g class="highcharts-label highcharts-data-label highcharts-data-label-color-undefined" data-z-index="1" transform="translate(417,178)" style="cursor: pointer;"><text x="5" data-z-index="1" y="16" style="color: black; font-size: 11px; font-weight: bold; fill: black;">56</text></g><g class="highcharts-label highcharts-data-label highcharts-data-label-color-undefined" data-z-index="1" transform="translate(513,228)" style="cursor: pointer;"><text x="5" data-z-index="1" y="16" style="color: black; font-size: 11px; font-weight: bold; fill: black;">20</text></g></g><g class="highcharts-legend highcharts-no-tooltip" data-z-index="7" transform="translate(252,359)" aria-hidden="true"><rect fill="none" class="highcharts-legend-box" rx="0" ry="0" x="0" y="0" width="146" height="26"></rect><g data-z-index="1"><g><g class="highcharts-legend-item highcharts-areaspline-series highcharts-color-undefined highcharts-series-1" data-z-index="1" transform="translate(8,3)"><text x="21" text-anchor="start" data-z-index="2" y="15" style="color: rgb(51, 51, 51); cursor: pointer; font-size: 12px; font-weight: bold; fill: rgb(51, 51, 51);">Item 2</text><rect x="2" y="4" width="12" height="12" fill="#94d13d" rx="6" ry="6" class="highcharts-point" data-z-index="3"></rect></g><g class="highcharts-legend-item highcharts-areaspline-series highcharts-color-undefined highcharts-series-0" data-z-index="1" transform="translate(83.36263275146484,3)"><text x="21" y="15" text-anchor="start" data-z-index="2" style="color: rgb(51, 51, 51); cursor: pointer; font-size: 12px; font-weight: bold; fill: rgb(51, 51, 51);">Item 1</text><rect x="2" y="4" width="12" height="12" fill="#6f58e9" rx="6" ry="6" class="highcharts-point" data-z-index="3"></rect></g></g></g></g><g class="highcharts-axis-labels highcharts-xaxis-labels" data-z-index="7" aria-hidden="true"><text x="115.66666666666333" text-anchor="middle" transform="translate(0,0)" style="color: rgb(102, 102, 102); cursor: default; font-size: 11px; fill: rgb(102, 102, 102);" y="345" opacity="1">Category 1</text><text x="211.00000000000333" text-anchor="middle" transform="translate(0,0)" style="color: rgb(102, 102, 102); cursor: default; font-size: 11px; fill: rgb(102, 102, 102);" y="345" opacity="1">Category 2</text><text x="306.3333333333333" text-anchor="middle" transform="translate(0,0)" style="color: rgb(102, 102, 102); cursor: default; font-size: 11px; fill: rgb(102, 102, 102);" y="345" opacity="1">Category 3</text><text x="401.66666666667334" text-anchor="middle" transform="translate(0,0)" style="color: rgb(102, 102, 102); cursor: default; font-size: 11px; fill: rgb(102, 102, 102);" y="345" opacity="1">Category 4</text><text x="497.00000000000335" text-anchor="middle" transform="translate(0,0)" style="color: rgb(102, 102, 102); cursor: default; font-size: 11px; fill: rgb(102, 102, 102);" y="345" opacity="1">Category 5</text><text x="592.3333333333334" text-anchor="middle" transform="translate(0,0)" style="color: rgb(102, 102, 102); cursor: default; font-size: 11px; fill: rgb(102, 102, 102);" y="345" opacity="1">Category 6</text></g><g class="highcharts-axis-labels highcharts-yaxis-labels" data-z-index="7" aria-hidden="true"><text x="53" text-anchor="end" transform="translate(0,0)" style="color: rgb(102, 102, 102); cursor: default; font-size: 11px; fill: rgb(102, 102, 102);" y="330" opacity="1">0</text><text x="53" text-anchor="end" transform="translate(0,0)" style="color: rgb(102, 102, 102); cursor: default; font-size: 11px; fill: rgb(102, 102, 102);" y="261" opacity="1">50</text><text x="53" text-anchor="end" transform="translate(0,0)" style="color: rgb(102, 102, 102); cursor: default; font-size: 11px; fill: rgb(102, 102, 102);" y="191" opacity="1">100</text><text x="53" text-anchor="end" transform="translate(0,0)" style="color: rgb(102, 102, 102); cursor: default; font-size: 11px; fill: rgb(102, 102, 102);" y="121" opacity="1">150</text><text x="53" text-anchor="end" transform="translate(0,0)" style="color: rgb(102, 102, 102); cursor: default; font-size: 11px; fill: rgb(102, 102, 102);" y="51" opacity="1">200</text></g></svg>